<svg xmlns="http://www.w3.org/2000/svg" viewBox="0 0 32 32"><defs><linearGradient id="ac" x1="0" y1="0" x2="0" y2="1"><stop offset="0%" stop-color="#FFD54F"/><stop offset="100%" stop-color="#FFB300"/></linearGradient></defs><path d="M3.6 11.2a1.5 1.5 0 0 1 2.4-.2L9.4 15l4.7-7a2.2 2.2 0 0 1 3.8 0l4.7 7 3.4-4a1.5 1.5 0 0 1 2.4.2l-2.6 12a1.4 1.4 0 0 1-1.37 1.1H7.57A1.4 1.4 0 0 1 6.2 23.2L3.6 11.2z" fill="url(#ac)"/><rect x="6.4" y="25.4" width="19.2" height="3.1" rx="1.3" fill="#FB8C00"/><circle cx="16" cy="17.4" r="1.7" fill="#E53935"/><circle cx="9.2" cy="14.6" r="1.3" fill="#42A5F5"/><circle cx="22.8" cy="14.6" r="1.3" fill="#42A5F5"/></svg>
