<svg xmlns="http://www.w3.org/2000/svg" viewBox="0 0 80 84" fill="none" aria-hidden="true">
  <defs>
    <linearGradient id="topFace" x1="0%" y1="0%" x2="100%" y2="100%">
      <stop offset="0%" stop-color="#ffffff"/>
      <stop offset="100%" stop-color="#e2e6f0"/>
    </linearGradient>
    <linearGradient id="leftFace" x1="0%" y1="0%" x2="100%" y2="100%">
      <stop offset="0%" stop-color="#d0d6e0"/>
      <stop offset="100%" stop-color="#a8b2c0"/>
    </linearGradient>
    <linearGradient id="rightFace" x1="0%" y1="0%" x2="100%" y2="100%">
      <stop offset="0%" stop-color="#b8bfcc"/>
      <stop offset="100%" stop-color="#909aaa"/>
    </linearGradient>
    <filter id="cubeShadow" x="-10%" y="-10%" width="130%" height="130%">
      <feDropShadow dx="0" dy="3" stdDeviation="4" flood-opacity="0.18"/>
    </filter>
  </defs>
  <g filter="url(#cubeShadow)" transform="translate(3,3) scale(1.07)" transform-origin="40 40">
    <path d="M40 6 C40 6 70 20 70 20 L40 34 C40 34 10 20 10 20 Z" fill="url(#topFace)" stroke="#8a94a4" stroke-width="1.8" stroke-linejoin="round"/>
    <path d="M10 20 L10 60 C10 60 40 74 40 74 L40 34 Z" fill="url(#leftFace)" stroke="#8a94a4" stroke-width="1.8" stroke-linejoin="round"/>
    <path d="M70 20 L70 60 C70 60 40 74 40 74 L40 34 Z" fill="url(#rightFace)" stroke="#8a94a4" stroke-width="1.8" stroke-linejoin="round"/>
  </g>
  <path d="M40 34 L40 74" stroke="#707a8a" stroke-width="1" opacity="0.4"/>
  <path d="M10 60 L40 74" stroke="#707a8a" stroke-width="1" opacity="0.25"/>
  <path d="M70 60 L40 74" stroke="#707a8a" stroke-width="1" opacity="0.25"/>
  <path d="M26 17 C30 15 34 15 38 17" stroke="white" stroke-width="2" stroke-linecap="round" opacity="0.8"/>
  <path d="M50 17 C54 15 58 15 62 17" stroke="white" stroke-width="2" stroke-linecap="round" opacity="0.5"/>
</svg>
