<svg xmlns="http://www.w3.org/2000/svg" viewBox="0 0 32 32"><defs><linearGradient id="kb" x1="0" y1="0" x2="0" y2="1"><stop offset="0%" stop-color="#FFA726"/><stop offset="100%" stop-color="#FB8C00"/></linearGradient></defs><rect x="5" y="14" width="22" height="14" rx="2.4" fill="url(#kb)"/><rect x="13.3" y="19.5" width="5.4" height="8.5" rx="1" fill="#FFF3E0"/><path d="M3.8 8h24.4l1.5 5a1 1 0 0 1-.96 1.3H3.26a1 1 0 0 1-.96-1.3L3.8 8z" fill="#E53935"/><path d="M3.8 8H8l-.5 6.3H3.3L3.8 8zm8.1 0h4l-.4 6.3h-4.2L11.9 8zm8.1 0h4l1.4 4.6a1 1 0 0 1-.95 1.7h-3.9L20.1 8z" fill="#fff" opacity=".9"/></svg>
