<svg width="48" height="48" viewBox="0 0 48 48" fill="none" xmlns="http://www.w3.org/2000/svg">
  <rect width="48" height="48" rx="8" fill="#4a5568"/>
  <path d="M24 10C24 10 28 14 28 20C28 22 27 24 25 24L23 24C21 24 20 22 20 20C20 14 24 10 24 10Z" fill="#f7fafc"/>
  <rect x="21" y="24" width="6" height="8" rx="1" fill="#f7fafc"/>
  <rect x="18" y="32" width="12" height="4" rx="1" fill="#f7fafc"/>
  <rect x="16" y="36" width="16" height="3" rx="1" fill="#f7fafc"/>
  <circle cx="24" cy="18" r="2" fill="#e2e8f0"/>
  <path d="M15 10L18 14L15 12Z" fill="#a0aec0"/>
  <path d="M33 10L30 14L33 12Z" fill="#a0aec0"/>
</svg>