<svg xmlns="http://www.w3.org/2000/svg" viewBox="0 0 32 32" shape-rendering="crispEdges" aria-hidden="true">
  <!-- Round gold coin with "K$" -->
  <rect x="10" y="2" width="12" height="2" fill="#c79b34"/>
  <rect x="6" y="4" width="20" height="2" fill="#e3a830"/>
  <rect x="4" y="6" width="24" height="2" fill="#e3a830"/>
  <rect x="2" y="8" width="28" height="16" fill="#f0c64b"/>
  <rect x="2" y="8" width="28" height="2" fill="#ffd86a"/>
  <rect x="4" y="24" width="24" height="2" fill="#c79b34"/>
  <rect x="6" y="26" width="20" height="2" fill="#a37748"/>
  <rect x="10" y="28" width="12" height="2" fill="#7a5a18"/>
  <!-- inner rim -->
  <rect x="5" y="10" width="22" height="1" fill="#ffe48a"/>
  <rect x="5" y="22" width="22" height="1" fill="#a37748"/>
  <!-- letter К (pixel) at left -->
  <rect x="8"  y="12" width="2" height="8" fill="#5a3f10"/>
  <rect x="10" y="15" width="1" height="2" fill="#5a3f10"/>
  <rect x="11" y="14" width="1" height="1" fill="#5a3f10"/>
  <rect x="12" y="13" width="1" height="1" fill="#5a3f10"/>
  <rect x="11" y="17" width="1" height="1" fill="#5a3f10"/>
  <rect x="12" y="18" width="1" height="1" fill="#5a3f10"/>
  <rect x="13" y="19" width="1" height="1" fill="#5a3f10"/>
  <!-- $ sign at right -->
  <rect x="17" y="11" width="5" height="2" fill="#5a3f10"/>
  <rect x="17" y="15" width="5" height="2" fill="#5a3f10"/>
  <rect x="17" y="19" width="5" height="2" fill="#5a3f10"/>
  <rect x="17" y="13" width="2" height="2" fill="#5a3f10"/>
  <rect x="20" y="17" width="2" height="2" fill="#5a3f10"/>
  <rect x="19" y="10" width="1" height="1" fill="#5a3f10"/>
  <rect x="19" y="21" width="1" height="1" fill="#5a3f10"/>
</svg>
