<svg xmlns="http://www.w3.org/2000/svg" viewBox="0 0 32 32" shape-rendering="crispEdges" aria-hidden="true">
  <rect x="10" y="2" width="12" height="2" fill="#c79b34"/>
  <rect x="6" y="4" width="20" height="2" fill="#e3a830"/>
  <rect x="4" y="6" width="24" height="2" fill="#e3a830"/>
  <rect x="2" y="8" width="28" height="16" fill="#f0c64b"/>
  <rect x="2" y="8" width="28" height="2" fill="#ffd86a"/>
  <rect x="4" y="24" width="24" height="2" fill="#c79b34"/>
  <rect x="6" y="26" width="20" height="2" fill="#a37748"/>
  <rect x="10" y="28" width="12" height="2" fill="#7a5a18"/>
  <rect x="5" y="10" width="22" height="1" fill="#ffe48a"/>
  <rect x="5" y="22" width="22" height="1" fill="#a37748"/>
  <rect x="9" y="11" width="3" height="10" fill="#5a3f10"/>
  <rect x="12" y="11" width="2" height="2" fill="#5a3f10"/>
  <rect x="14" y="13" width="2" height="2" fill="#5a3f10"/>
  <rect x="12" y="15" width="2" height="2" fill="#5a3f10"/>
  <rect x="14" y="17" width="2" height="2" fill="#5a3f10"/>
  <rect x="16" y="19" width="2" height="2" fill="#5a3f10"/>
  <rect x="12" y="19" width="3" height="2" fill="#5a3f10"/>
</svg>
