<svg xmlns="http://www.w3.org/2000/svg" viewBox="0 0 64 64">
  <defs>
    <linearGradient id="harvestSky" x1="0%" y1="0%" x2="0%" y2="100%">
      <stop offset="0%" style="stop-color:#87CEEB"/>
      <stop offset="100%" style="stop-color:#B0E0E6"/>
    </linearGradient>
    <linearGradient id="harvestGround" x1="0%" y1="0%" x2="0%" y2="100%">
      <stop offset="0%" style="stop-color:#8BC34A"/>
      <stop offset="100%" style="stop-color:#689F38"/>
    </linearGradient>
  </defs>
  <rect x="4" y="4" width="56" height="56" rx="10" fill="url(#harvestSky)"/>
  <rect x="4" y="36" width="56" height="24" rx="8" fill="url(#harvestGround)"/>
  <circle cx="48" cy="16" r="8" fill="#FFD54F"/>
  <circle cx="48" cy="16" r="6" fill="#FFEB3B"/>
  <ellipse cx="32" cy="44" rx="10" ry="8" fill="#FF9800"/>
  <ellipse cx="24" cy="44" rx="6" ry="7" fill="#FFA726"/>
  <ellipse cx="40" cy="44" rx="6" ry="7" fill="#FFA726"/>
  <rect x="29" y="34" width="6" height="6" rx="2" fill="#4CAF50"/>
  <path d="M29 36 Q26 30 22 34" stroke="#4CAF50" stroke-width="2" fill="none"/>
  <path d="M35 36 Q38 30 42 34" stroke="#4CAF50" stroke-width="2" fill="none"/>
  <rect x="12" y="46" width="4" height="6" rx="1" fill="#795548"/>
  <circle cx="14" cy="44" r="4" fill="#E53935"/>
  <rect x="46" y="48" width="3" height="5" rx="1" fill="#795548"/>
  <circle cx="47" cy="46" r="3" fill="#E53935"/>
</svg>
