<svg xmlns="http://www.w3.org/2000/svg" viewBox="0 0 64 64">
  <defs>
    <linearGradient id="pumpkinGrad" x1="0%" y1="0%" x2="0%" y2="100%">
      <stop offset="0%" style="stop-color:#FF8C00"/>
      <stop offset="100%" style="stop-color:#E06500"/>
    </linearGradient>
  </defs>
  <ellipse cx="32" cy="36" rx="22" ry="20" fill="url(#pumpkinGrad)"/>
  <ellipse cx="22" cy="36" rx="12" ry="18" fill="#FF9800"/>
  <ellipse cx="42" cy="36" rx="12" ry="18" fill="#FF9800"/>
  <rect x="28" y="10" width="8" height="10" rx="2" fill="#4CAF50"/>
  <path d="M28 14 Q24 8 20 12" stroke="#4CAF50" stroke-width="3" fill="none"/>
  <path d="M36 14 Q40 8 44 12" stroke="#4CAF50" stroke-width="3" fill="none"/>
  <path d="M22 32 L26 38 L18 38 Z" fill="#BF360C"/>
  <path d="M32 30 L36 38 L28 38 Z" fill="#BF360C"/>
  <path d="M42 32 L46 38 L38 38 Z" fill="#BF360C"/>
  <path d="M22 44 L26 40 L18 40 Z" fill="#BF360C"/>
  <path d="M32 44 L36 40 L28 40 Z" fill="#BF360C"/>
  <path d="M42 44 L46 40 L38 40 Z" fill="#BF360C"/>
</svg>
