<svg xmlns="http://www.w3.org/2000/svg" viewBox="0 0 64 64">
  <defs>
    <linearGradient id="rouletteOuter" x1="0%" y1="0%" x2="0%" y2="100%">
      <stop offset="0%" style="stop-color:#4E342E"/>
      <stop offset="100%" style="stop-color:#3E2723"/>
    </linearGradient>
    <linearGradient id="rouletteInner" x1="0%" y1="0%" x2="0%" y2="100%">
      <stop offset="0%" style="stop-color:#2E7D32"/>
      <stop offset="100%" style="stop-color:#1B5E20"/>
    </linearGradient>
  </defs>
  <circle cx="32" cy="32" r="28" fill="url(#rouletteOuter)" stroke="#FFD700" stroke-width="2"/>
  <circle cx="32" cy="32" r="22" fill="url(#rouletteInner)"/>
  <circle cx="32" cy="32" r="16" fill="none" stroke="#FFD700" stroke-width="1"/>
  <circle cx="32" cy="32" r="6" fill="#FFD700"/>
  <circle cx="32" cy="32" r="3" fill="#BF360C"/>
  <line x1="32" y1="10" x2="32" y2="16" stroke="#FFD700" stroke-width="2"/>
  <line x1="32" y1="48" x2="32" y2="54" stroke="#FFD700" stroke-width="2"/>
  <line x1="10" y1="32" x2="16" y2="32" stroke="#FFD700" stroke-width="2"/>
  <line x1="48" y1="32" x2="54" y2="32" stroke="#FFD700" stroke-width="2"/>
  <line x1="16.4" y1="16.4" x2="20.7" y2="20.7" stroke="#FFD700" stroke-width="1.5"/>
  <line x1="47.6" y1="47.6" x2="43.3" y2="43.3" stroke="#FFD700" stroke-width="1.5"/>
  <line x1="47.6" y1="16.4" x2="43.3" y2="20.7" stroke="#FFD700" stroke-width="1.5"/>
  <line x1="16.4" y1="47.6" x2="20.7" y2="43.3" stroke="#FFD700" stroke-width="1.5"/>
  <polygon points="32,2 36,10 28,10" fill="#F44336"/>
</svg>
