<svg xmlns="http://www.w3.org/2000/svg" viewBox="0 0 64 64">
  <defs>
    <linearGradient id="slotBodyGrad" x1="0%" y1="0%" x2="0%" y2="100%">
      <stop offset="0%" style="stop-color:#FFD700"/>
      <stop offset="100%" style="stop-color:#FFA000"/>
    </linearGradient>
    <linearGradient id="slotScreenGrad" x1="0%" y1="0%" x2="0%" y2="100%">
      <stop offset="0%" style="stop-color:#FAFAFA"/>
      <stop offset="100%" style="stop-color:#E0E0E0"/>
    </linearGradient>
  </defs>
  <rect x="6" y="6" width="52" height="52" rx="12" fill="url(#slotBodyGrad)"/>
  <rect x="10" y="10" width="44" height="44" rx="10" fill="#E65100"/>
  <rect x="14" y="14" width="36" height="36" rx="8" fill="url(#slotScreenGrad)"/>
  <rect x="18" y="18" width="8" height="8" rx="2" fill="#F44336"/>
  <rect x="28" y="18" width="8" height="8" rx="2" fill="#4CAF50"/>
  <rect x="38" y="18" width="8" height="8" rx="2" fill="#2196F3"/>
  <rect x="18" y="30" width="8" height="8" rx="2" fill="#FF9800"/>
  <rect x="28" y="30" width="8" height="8" rx="2" fill="#9C27B0"/>
  <rect x="38" y="30" width="8" height="8" rx="2" fill="#FFEB3B"/>
  <rect x="18" y="42" width="8" height="8" rx="2" fill="#795548"/>
  <rect x="28" y="42" width="8" height="8" rx="2" fill="#607D8B"/>
  <rect x="38" y="42" width="8" height="8" rx="2" fill="#FF5722"/>
  <line x1="14" y1="28" x2="50" y2="28" stroke="#BDBDBD" stroke-width="1"/>
  <line x1="14" y1="40" x2="50" y2="40" stroke="#BDBDBD" stroke-width="1"/>
  <rect x="24" y="2" width="16" height="8" rx="4" fill="#FF6F00"/>
  <circle cx="32" cy="6" r="3" fill="#FFD700"/>
</svg>
