<svg xmlns="http://www.w3.org/2000/svg" viewBox="0 0 32 32" shape-rendering="crispEdges" aria-hidden="true">
  <rect x="15" y="3"  width="2" height="3" fill="#f5b41a"/>
  <rect x="15" y="26" width="2" height="3" fill="#f5b41a"/>
  <rect x="3"  y="15" width="3" height="2" fill="#f5b41a"/>
  <rect x="26" y="15" width="3" height="2" fill="#f5b41a"/>
  <rect x="14" y="6"  width="4" height="4" fill="#ffd86a"/>
  <rect x="11" y="11" width="10" height="10" fill="#ffd86a"/>
  <rect x="13" y="9"  width="6" height="14" fill="#ffd86a"/>
  <rect x="9"  y="13" width="14" height="6" fill="#ffd86a"/>
  <rect x="14" y="22" width="4" height="4" fill="#ffd86a"/>
  <rect x="14" y="13" width="4" height="6" fill="#ffe48a"/>
  <rect x="13" y="14" width="6" height="4" fill="#ffe48a"/>
  <rect x="7"  y="7"  width="2" height="2" fill="#ffd86a"/>
  <rect x="23" y="7"  width="2" height="2" fill="#ffd86a"/>
  <rect x="7"  y="23" width="2" height="2" fill="#ffd86a"/>
  <rect x="23" y="23" width="2" height="2" fill="#ffd86a"/>
</svg>
