<svg xmlns="http://www.w3.org/2000/svg" viewBox="0 0 64 64" shape-rendering="crispEdges">
  <defs>
    <linearGradient id="ushTop" x1="0%" y1="0%" x2="0%" y2="100%">
      <stop offset="0%" style="stop-color:#6D4C41"/>
      <stop offset="100%" style="stop-color:#4E342E"/>
    </linearGradient>
  </defs>
  <!-- Ushanka top -->
  <rect x="16" y="6" width="32" height="8" fill="url(#ushTop)"/>
  <rect x="18" y="4" width="28" height="4" fill="url(#ushTop)"/>
  <!-- Ushanka flaps -->
  <rect x="12" y="14" width="8" height="16" fill="#8D6E63"/>
  <rect x="44" y="14" width="8" height="16" fill="#8D6E63"/>
  <rect x="12" y="28" width="8" height="4" fill="#A1887F"/>
  <rect x="44" y="28" width="8" height="4" fill="#A1887F"/>
  <!-- Head (elongated) -->
  <rect x="20" y="14" width="24" height="24" fill="#D4A574"/>
  <!-- Stubble -->
  <rect x="22" y="32" width="2" height="2" fill="#8D6E63"/>
  <rect x="26" y="34" width="2" height="2" fill="#8D6E63"/>
  <rect x="30" y="32" width="2" height="2" fill="#8D6E63"/>
  <rect x="34" y="34" width="2" height="2" fill="#8D6E63"/>
  <rect x="38" y="32" width="2" height="2" fill="#8D6E63"/>
  <rect x="24" y="36" width="2" height="2" fill="#8D6E63"/>
  <rect x="28" y="36" width="2" height="2" fill="#8D6E63"/>
  <rect x="32" y="36" width="2" height="2" fill="#8D6E63"/>
  <rect x="36" y="36" width="2" height="2" fill="#8D6E63"/>
  <rect x="40" y="36" width="2" height="2" fill="#8D6E63"/>
  <!-- Eyes -->
  <rect x="24" y="20" width="6" height="4" fill="#FFF"/>
  <rect x="34" y="20" width="6" height="4" fill="#FFF"/>
  <rect x="26" y="22" width="3" height="2" fill="#2E2E2E"/>
  <rect x="36" y="22" width="3" height="2" fill="#2E2E2E"/>
  <!-- Eyebrows -->
  <rect x="22" y="18" width="8" height="2" fill="#5D4037"/>
  <rect x="34" y="18" width="8" height="2" fill="#5D4037"/>
  <!-- Big red nose -->
  <rect x="28" y="24" width="8" height="6" fill="#E57373"/>
  <rect x="30" y="25" width="4" height="4" fill="#EF5350"/>
  <!-- Mouth -->
  <rect x="28" y="38" width="8" height="2" fill="#8B4513"/>
  <!-- Body -->
  <rect x="18" y="42" width="28" height="14" fill="#5C6BC0"/>
  <rect x="22" y="46" width="6" height="4" fill="#3949AB"/>
  <rect x="36" y="50" width="6" height="4" fill="#3949AB"/>
  <!-- Arms -->
  <rect x="10" y="44" width="8" height="10" fill="#5C6BC0"/>
  <rect x="46" y="44" width="8" height="10" fill="#5C6BC0"/>
  <!-- Hands -->
  <rect x="10" y="52" width="8" height="4" fill="#D4A574"/>
  <rect x="46" y="52" width="8" height="4" fill="#D4A574"/>
  <!-- Legs -->
  <rect x="22" y="56" width="8" height="6" fill="#5D4037"/>
  <rect x="34" y="56" width="8" height="6" fill="#5D4037"/>
</svg>
