<svg xmlns="http://www.w3.org/2000/svg" viewBox="0 0 100 100">
  <defs>
    <radialGradient id="villagerBg" cx="50%" cy="50%" r="50%">
      <stop offset="0%" style="stop-color:#E8F5E9"/>
      <stop offset="100%" style="stop-color:#C8E6C9"/>
    </radialGradient>
    <linearGradient id="villagerSkin" x1="0%" y1="0%" x2="0%" y2="100%">
      <stop offset="0%" style="stop-color:#D4A574"/>
      <stop offset="100%" style="stop-color:#C49464"/>
    </linearGradient>
    <linearGradient id="villagerHat" x1="0%" y1="0%" x2="0%" y2="100%">
      <stop offset="0%" style="stop-color:#8D6E63"/>
      <stop offset="100%" style="stop-color:#5D4037"/>
    </linearGradient>
    <linearGradient id="villagerShirt" x1="0%" y1="0%" x2="0%" y2="100%">
      <stop offset="0%" style="stop-color:#5C6BC0"/>
      <stop offset="100%" style="stop-color:#3949AB"/>
    </linearGradient>
  </defs>
  <circle cx="50" cy="50" r="48" fill="url(#villagerBg)"/>
  <circle cx="50" cy="42" r="22" fill="url(#villagerSkin)"/>
  <ellipse cx="50" cy="28" rx="20" ry="8" fill="url(#villagerHat)"/>
  <rect x="30" y="24" width="40" height="6" rx="2" fill="url(#villagerHat)"/>
  <ellipse cx="42" cy="40" rx="3" ry="4" fill="#2E7D32"/>
  <ellipse cx="58" cy="40" rx="3" ry="4" fill="#2E7D32"/>
  <circle cx="42" cy="39" r="1.2" fill="#fff"/>
  <circle cx="58" cy="39" r="1.2" fill="#fff"/>
  <path d="M44 48 Q50 52 56 48" stroke="#8B4513" stroke-width="2" fill="none"/>
  <rect x="38" y="52" width="24" height="4" rx="2" fill="#8B4513"/>
  <rect x="32" y="60" width="36" height="20" rx="4" fill="url(#villagerShirt)"/>
  <rect x="40" y="64" width="8" height="8" rx="2" fill="#303F9F"/>
  <rect x="52" y="64" width="8" height="8" rx="2" fill="#303F9F"/>
</svg>
