<svg xmlns="http://www.w3.org/2000/svg" viewBox="0 0 32 32">
  <path d="M4 11a4 4 0 0 1 4-4h16a4 4 0 0 1 4 4v6a4 4 0 0 1-4 4h-3l-2-3H13l-2 3H8a4 4 0 0 1-4-4v-6z"/>
  <!-- D-pad (left side) -->
  <circle cx="9" cy="14" r="1.5"/><circle cx="9" cy="18" r="1.5"/>
  <circle cx="7" cy="16" r="1.5"/><circle cx="11" cy="16" r="1.5"/>
  <!-- Face buttons (right side, symmetric cross) -->
  <circle cx="21" cy="13" r="1.5"/><circle cx="21" cy="19" r="1.5"/>
  <circle cx="18" cy="16" r="1.5"/><circle cx="24" cy="16" r="1.5"/>
  <!-- Start/Select center bumps -->
  <rect x="13" y="15" width="2" height="1" rx="0.5"/>
  <rect x="17" y="15" width="2" height="1" rx="0.5"/>
</svg>
